<svg xmlns="http://www.w3.org/2000/svg" viewBox="0 0 100 100">
  <defs>
    <linearGradient id="g" x1="0" x2="1" y1="0" y2="1">
      <stop offset="0" stop-color="#667eea"/>
      <stop offset="1" stop-color="#764ba2"/>
    </linearGradient>
  </defs>
  <rect width="100" height="100" fill="url(#g)" rx="16"/>
  <g transform="translate(12,12)">
    <rect x="0" y="0" width="76" height="76" rx="8" fill="#e6d3a3" stroke="#644c27" stroke-width="2"/>
    <g stroke="#644c27" stroke-width="1">
      <line x1="8" y1="8" x2="68" y2="8"/>
      <line x1="8" y1="24" x2="68" y2="24"/>
      <line x1="8" y1="40" x2="68" y2="40"/>
      <line x1="8" y1="56" x2="68" y2="56"/>
      <line x1="8" y1="72" x2="68" y2="72"/>
      <line x1="8" y1="8" x2="8" y2="72"/>
      <line x1="24" y1="8" x2="24" y2="72"/>
      <line x1="40" y1="8" x2="40" y2="72"/>
      <line x1="56" y1="8" x2="56" y2="72"/>
      <line x1="72" y1="8" x2="72" y2="72"/>
    </g>
    <circle cx="24" cy="24" r="8" fill="#111"/>
    <circle cx="56" cy="40" r="8" fill="#fff"/>
  </g>
</svg> 